<svg width="60" height="61" viewBox="0 0 60 61" fill="none" xmlns="http://www.w3.org/2000/svg">
<path d="M6.65766 2.66068C6.60258 2.66009 6.54773 2.66232 6.49277 2.66419C6.41941 2.66693 6.34617 2.67185 6.27305 2.67896C5.39789 2.76334 4.5525 3.16505 3.65859 3.98267C2.48848 5.05236 2.15121 6.0522 2.32184 7.23087C2.49234 8.40931 3.3007 9.83666 4.79742 11.3214C5.13668 11.658 5.51531 11.9937 5.9216 12.3322C6.07043 12.4558 6.22219 12.5818 6.37945 12.7055C6.51263 12.8107 6.64693 12.9145 6.78234 13.0168C6.80953 13.0373 6.83555 13.0587 6.86297 13.0791C8.75496 14.4898 11.1981 15.8843 14.0917 17.1664C32.8092 36.0699 47.9372 52.0359 57.9894 58.4309C52 48.3968 36.0247 33.2801 16.9738 14.4234C15.775 11.6341 14.4994 9.30111 13.2128 7.47626C17.3682 6.28212 22.8827 7.20744 27.9491 12.2739C32.6651 16.9898 34.1181 22.9117 32.7977 27.3141C33.3708 27.89 33.9559 28.4758 34.519 29.0426C36.7537 23.6403 35.0549 16.2815 29.4982 10.7247C25.3153 6.54193 20.6529 4.82736 16.4866 4.83955C16.3522 4.84013 16.2171 4.84306 16.0837 4.84705C13.5239 4.92322 11.1669 5.65541 9.24656 6.86115C8.91078 7.07196 8.58569 7.29935 8.2725 7.54248C8.42836 7.90505 8.5957 8.23201 8.78883 8.50552C9.01383 8.82427 9.25805 9.08396 9.59813 9.28927C9.85617 9.08806 10.1252 8.89376 10.4112 8.71435C10.5365 8.6347 10.6635 8.55772 10.792 8.48349C11.7525 9.66568 12.6043 11.3691 13.7768 14.0206C10.9752 12.7822 9.22734 11.9065 8.03074 10.8565C8.03356 10.853 8.03543 10.8492 8.03824 10.8456C7.9875 10.807 7.93664 10.7689 7.88824 10.7285C7.88684 10.7274 7.88555 10.7263 7.88438 10.7249C6.57012 9.50912 5.94703 8.03736 5.26992 5.51009C5.97164 5.69818 6.58898 5.88392 7.14492 6.07775C8.11804 5.34017 9.17212 4.71602 10.2867 4.2174C9.17344 3.3106 8.11266 2.81935 7.15945 2.69748C6.99035 2.6758 6.82313 2.6622 6.65766 2.66068ZM57.8061 8.0438C48.6673 8.0438 43.0889 11.4289 40.6822 16.1773C38.2756 20.9258 39.0423 26.7699 41.8175 31.5766C43.1517 33.8875 43.9043 36.3446 44.066 38.7508C44.7898 39.4981 45.5113 40.2476 46.2305 40.9993C46.5012 37.4889 45.6361 33.8098 43.7145 30.4817C41.2383 26.1924 40.6494 21.0936 42.638 17.1699C44.6265 13.2462 49.1934 10.2338 57.8064 10.2338V8.04404L57.8061 8.0438ZM4.44211 13.9693C4.10297 16.773 5.16633 19.8533 7.90289 22.5898L9.45188 21.0443C7.58039 19.1729 6.73453 17.3139 6.58816 15.5842C5.80934 15.0557 5.09356 14.5176 4.44199 13.9692L4.44211 13.9693ZM14.5384 32.9609C11.6713 32.9576 9.26027 33.5375 7.34977 34.5612C4.43859 36.121 2.73691 38.7642 2.57438 41.6476C2.24859 47.414 7.77516 53.6768 19.0281 55.5085C30.9379 57.4472 38.9855 54.4322 43.0991 49.1731C43.2173 49.0221 43.3321 48.8695 43.4436 48.7154C42.9102 48.2194 42.3716 47.7169 41.8284 47.2066C41.6839 47.4163 41.5331 47.6226 41.3743 47.8253C37.8622 52.3154 30.7859 55.2046 19.3798 53.3479C8.78672 51.6235 4.52086 46.0205 4.76063 41.7718C4.88051 39.6475 6.04758 37.744 8.38617 36.4911C10.7246 35.2381 14.2768 34.6906 18.9916 35.6157C22.985 36.3997 26.3672 36.0223 29.0038 34.8029C28.4507 34.2579 27.8917 33.7095 27.3304 33.1547C25.2743 33.9108 22.6557 34.1026 19.4127 33.466C17.6672 33.1234 16.0403 32.9624 14.5384 32.9607V32.9609Z" fill="#D1E1FB"/>
</svg>
