<svg width="77" height="83" viewBox="0 0 77 83" fill="none" xmlns="http://www.w3.org/2000/svg">
<path d="M38.5 14C53.3872 14 65.5 26.2875 65.5 41.5C65.5 56.7125 53.3872 69 38.5 69C23.6128 69 11.5 56.7125 11.5 41.5C11.5 26.2875 23.6128 14 38.5 14Z" stroke="#1E1E1E" stroke-width="3"/>
<path d="M31.3206 37.5228C31.3041 32.8924 31.5737 22.972 31.6132 22.5C11.5952 34.2586 21.501 57.9606 31.301 60.5L31.0734 46.9355H47.2654C47.2654 49.9122 47.6639 56.5311 47.6639 60.5C66.6182 45.992 55.1765 26.4009 47.4119 22.972L47.2654 37.5228H31.3206Z" stroke="#1E1E1E" stroke-width="3"/>
</svg>
