<svg width="78" height="81" viewBox="0 0 78 81" fill="none" xmlns="http://www.w3.org/2000/svg">
<path d="M39 13C53.8872 13 66 25.2875 66 40.5C66 55.7125 53.8872 68 39 68C24.1128 68 12 55.7125 12 40.5C12 25.2875 24.1128 13 39 13Z" stroke="#E1E1E1" stroke-width="3"/>
<path d="M31.8206 36.5228C31.8041 31.8924 32.0737 21.972 32.1132 21.5C12.0952 33.2586 22.001 56.9606 31.801 59.5L31.5734 45.9355H47.7654C47.7654 48.9122 48.1639 55.5311 48.1639 59.5C67.1182 44.992 55.6765 25.4009 47.9119 21.972L47.7654 36.5228H31.8206Z" stroke="#E1E1E1" stroke-width="3"/>
</svg>
