<svg width="60" height="60" viewBox="0 0 60 60" fill="none" xmlns="http://www.w3.org/2000/svg">
<path d="M8.30021 2.38498C8.30021 2.38498 5.97021 1.94998 5.97021 5.34498C5.97021 8.74248 6.52521 50.37 6.52521 50.37C6.52521 50.37 7.47271 52.0275 7.82771 51.9475C8.18021 51.8725 14.1927 51.0525 14.2702 51.04L14.3127 51.035L14.3452 41.025L14.3752 31.275L25.0227 31.2725L25.0127 30.51L14.3777 30.375L14.3902 26.335L26.9902 26.4775L27.0202 25.6725L14.3952 25.38L14.4377 10.01C14.4377 10.01 14.2977 8.32748 15.3227 8.32748C16.3477 8.32748 42.4627 9.26998 42.4627 9.26998C42.4627 9.26998 43.3202 9.29998 43.3477 9.91248C43.3602 10.18 43.3552 18.4125 43.3577 24.81L40.6877 25.095L40.6927 25.8825L30.1552 25.7275L30.1402 26.5725L40.7502 26.7175L40.7627 30.555L34.7877 30.5975L34.7827 31.3375L40.7252 31.28L40.7327 31.8675H43.3652C43.3652 34.3925 43.3702 36.15 43.3652 37.9425C44.7202 38.3375 46.8277 39.03 46.8277 39.03L43.3202 39.555C43.3202 40.1125 43.3252 40.985 43.3327 41.8625L41.0077 40.9875L39.3727 41.195L43.3352 42.6675L43.3427 43.585L48.5227 42.8575L48.5052 5.95998C48.5052 5.95998 48.5302 4.59498 47.0952 4.54998C45.6577 4.50748 8.30021 2.38498 8.30021 2.38498ZM23.9502 24.04L23.9377 25.415L27.1952 25.495L27.1202 27.6675L25.1452 27.6175L25.1977 32.1175L25.9077 32.0425L25.9252 32.9175L28.3477 32.9925V34.4075C28.371 34.4075 28.3902 34.4158 28.4052 34.4325C28.4219 34.4491 28.4302 34.4683 28.4302 34.49V34.5225L29.0252 34.8225C29.0424 34.8289 29.0566 34.8413 29.0652 34.8575C29.0726 34.8731 29.0743 34.8907 29.0702 34.9075L29.0652 34.9225L30.1077 35.2225L30.0577 30.1025L30.0977 30.0575C30.1477 30.0575 34.4377 30.04 34.4377 30.0125L34.4427 27.645L29.9527 27.6775L30.0277 24.35L23.9502 24.04ZM34.4327 30.225L30.3877 30.2675L30.4377 35.0425L34.4327 34.9325V30.225ZM28.3477 34.49L27.9527 34.8825L28.4777 35.4075L28.9902 34.8975L28.3477 34.5725V34.49ZM34.4102 35.5025C34.3377 35.5025 14.7277 37.7425 14.7277 37.7425L22.7202 42.0375L46.6102 39.015C46.6102 39.015 34.4852 35.5025 34.4102 35.5025ZM14.6027 37.815L14.6277 39.0525L15.1702 39.335L16.7152 39.385L22.0177 42.295L21.3752 42.76L22.4052 43.48L25.6752 43.1975L26.5002 42.7325L42.2327 40.75L43.1327 40.905L43.0577 39.6175L22.6377 42.2175L14.6027 37.815ZM16.2252 41.0225L14.4602 41.0725L14.4352 51.0775L16.5352 50.6375L16.4427 48.3075L24.6327 54.5275C24.6327 54.5275 24.5677 55.66 24.7077 56.7025C24.8502 57.745 26.2402 57.6275 26.2402 57.6275L29.4727 56.935L29.9727 56.33L49.8652 52.5175L50.3952 53.0325L53.2902 52.415C53.5877 52.35 53.8177 51.915 53.9727 51.63C54.1277 51.345 53.9127 47.125 53.9602 45.7975C54.0002 44.685 53.7602 44.735 53.6377 44.7025L51.7452 45.0375C51.7452 45.0375 51.2252 45.18 50.9602 45.0625C50.5252 44.8725 50.5752 44.55 50.5752 44.55C50.5752 44.55 50.6002 43.995 50.4077 43.3775C50.2152 42.76 49.7627 42.85 49.7627 42.85L32.0627 45.335C32.0627 45.335 31.1327 45.48 30.3252 45.685L25.8202 43.21L25.7177 43.2675L25.6827 43.2775L24.3677 43.3925L29.4127 46.055C29.4052 46.0725 29.3202 46.0775 29.3177 46.095C29.0752 48.3 28.8127 48.5675 28.1602 48.67L24.6977 49.1575L16.9977 43.88L16.2252 41.0225Z" fill="#E1E1E1"/>
</svg>
