<svg width="60" height="61" viewBox="0 0 60 61" fill="none" xmlns="http://www.w3.org/2000/svg">
<path d="M12.5 38C12.5 40.2981 12.9527 42.5738 13.8321 44.697C14.7116 46.8202 16.0006 48.7493 17.6256 50.3744C19.2507 51.9994 21.1798 53.2884 23.303 54.1679C25.4262 55.0474 27.7019 55.5 30 55.5C32.2981 55.5 34.5738 55.0474 36.697 54.1679C38.8202 53.2884 40.7493 51.9994 42.3744 50.3744C43.9994 48.7493 45.2884 46.8202 46.1679 44.697C47.0474 42.5738 47.5 40.2981 47.5 38C47.5009 34.6625 46.542 31.3951 44.7375 28.5875H44.755L30 5.5L15.2425 28.5875H15.26C13.4577 31.396 12.4997 34.6629 12.5 38Z" fill="#D1E1FB"/>
</svg>
