<svg width="23" height="23" viewBox="0 0 23 23" fill="none" xmlns="http://www.w3.org/2000/svg">
<path d="M8.33143 11.8242C7.60419 10.7717 7.17157 9.50179 7.08231 9.3939C8.14743 8.65133 10.2306 7.71819 10.3472 6.37926C10.4956 4.64933 7.56476 1.03286 7.0029 1C5.46519 1.01643 2.65098 3.61871 2.31748 4.4051C1.69757 6.03098 2.00479 7.54405 3.07045 9.73452C4.42745 12.9929 9.46774 19.1738 12.351 21.114C14.2589 22.5784 15.6525 23.1534 17.3168 22.8062C18.0905 22.6594 20.885 20.3665 21.1649 18.8162C21.2333 18.2412 17.9849 14.4293 16.3048 14.2781C15.0003 14.1576 13.7496 16.1105 12.8531 17.065C12.7639 16.951 11.9994 16.3547 11.179 15.4106C10.1112 14.2885 9.11891 12.9704 8.33143 11.8242Z" fill="#E1E1E1"/>
</svg>
